<svg height="217.5999961853027" version="1.1" width="567.2500213623048" xmlns="http://www.w3.org/2000/svg" xmlns:xlink="http://www.w3.org/1999/xlink" style="overflow: hidden; position: relative; left: -0.6px; top: -0.8px;" viewBox="18.874989318847668 117.02169729614258 567.2500213623048 217.5999961853027" preserveAspectRatio="xMinYMin" id="main_svg"><desc style="-webkit-tap-highlight-color: rgba(0, 0, 0, 0);">Created with Logotizer</desc><defs style="-webkit-tap-highlight-color: rgba(0, 0, 0, 0);"></defs><path fill="#f3f3db" stroke="none" d="M-72.15,-22.13Q-72.15,-22.85,-71.64,-23.33Q-71.12,-23.81,-70.37,-23.81Q-69.22,-23.81,-68.45,-22.52Q-65.05,-24.68,-61.44,-24.68Q-57.72,-24.68,-55.86,-22.22Q-52.65,-24.68,-48.9,-24.68Q-45.08,-24.68,-42.99,-22.46Q-40.89,-20.25,-40.89,-16.52L-40.89,-1.48Q-40.89,-0.68,-41.38,-0.18Q-41.87,0.33,-42.76,0.33Q-43.65,0.33,-44.15,-0.18Q-44.64,-0.68,-44.64,-1.48L-44.64,-16.41Q-44.64,-18.54,-45.76,-19.88Q-46.89,-21.21,-49,-21.21Q-50.5,-21.21,-51.95,-20.5Q-53.4,-19.78,-54.29,-18.68Q-54.04,-17.44,-54.04,-16.52L-54.04,-1.48Q-54.04,-0.68,-54.53,-0.18Q-55.02,0.33,-55.91,0.33Q-56.8,0.33,-57.29,-0.18Q-57.79,-0.68,-57.79,-1.48L-57.79,-15.4Q-57.79,-16.8,-57.94,-17.77Q-58.09,-18.73,-58.5,-19.56Q-58.91,-20.39,-59.72,-20.8Q-60.53,-21.21,-61.77,-21.21Q-63.27,-21.21,-64.77,-20.66Q-66.27,-20.11,-67.35,-19.29Q-67.21,-18.42,-67.21,-17.81L-67.21,-1.48Q-67.21,-0.68,-67.69,-0.18Q-68.17,0.33,-69.06,0.33Q-69.95,0.33,-70.44,-0.18Q-70.94,-0.68,-70.94,-1.48L-70.94,-17.81Q-70.94,-18.75,-71.03,-19.37Q-71.12,-19.99,-71.19,-20.19Q-71.26,-20.39,-71.5,-20.73Q-71.73,-21.07,-71.8,-21.16Q-71.83,-21.19,-71.9,-21.32Q-71.97,-21.45,-72.01,-21.54Q-72.06,-21.63,-72.11,-21.8Q-72.15,-21.96,-72.15,-22.13ZM-35.15,-8.16L-35.15,-16.17Q-35.15,-19.92,-32.78,-22.32Q-30.41,-24.73,-26.17,-24.73Q-21.93,-24.73,-19.56,-22.32Q-17.19,-19.92,-17.19,-16.17L-17.19,-8.16Q-17.19,-4.41,-19.55,-2.02Q-21.9,0.38,-26.17,0.38Q-30.44,0.38,-32.79,-2.02Q-35.15,-4.41,-35.15,-8.16M-31.4,-8.16Q-31.4,-5.74,-30.06,-4.41Q-28.72,-3.07,-26.17,-3.07Q-23.61,-3.07,-22.28,-4.41Q-20.94,-5.74,-20.94,-8.16L-20.94,-16.22Q-20.94,-18.59,-22.28,-19.92Q-23.61,-21.26,-26.17,-21.26Q-28.72,-21.26,-30.06,-19.92Q-31.4,-18.59,-31.4,-16.22L-31.4,-8.16ZM-11.47,-9.75L-11.47,-29.81Q-11.47,-30.61,-10.98,-31.13Q-10.49,-31.64,-9.62,-31.64Q-8.76,-31.64,-8.25,-31.11Q-7.75,-30.59,-7.75,-29.81L-7.75,-23.18L-2.76,-23.18Q-2.03,-23.18,-1.52,-22.66Q-1.02,-22.15,-1.02,-21.4Q-1.02,-20.65,-1.52,-20.14Q-2.03,-19.64,-2.76,-19.64L-7.75,-19.64L-7.75,-10.08Q-7.75,-8.06,-7.62,-6.9Q-7.49,-5.74,-7.07,-4.86Q-6.65,-3.98,-5.87,-3.64Q-5.1,-3.3,-3.81,-3.3Q-3.67,-3.3,-3.35,-3.33Q-3.04,-3.35,-2.9,-3.35Q-0.39,-3.35,-0.39,-1.64Q-0.39,-0.54,-1.13,-0.18Q-1.86,0.19,-3.13,0.19Q-5.61,0.19,-7.27,-0.41Q-8.92,-1.01,-9.83,-2.32Q-10.75,-3.63,-11.11,-5.38Q-11.47,-7.13,-11.47,-9.75ZM2.47,-8.16L2.47,-16.17Q2.47,-19.92,4.84,-22.32Q7.21,-24.73,11.45,-24.73Q15.69,-24.73,18.06,-22.32Q20.42,-19.92,20.42,-16.17L20.42,-8.16Q20.42,-4.41,18.07,-2.02Q15.71,0.38,11.45,0.38Q7.18,0.38,4.83,-2.02Q2.47,-4.41,2.47,-8.16M6.22,-8.16Q6.22,-5.74,7.56,-4.41Q8.89,-3.07,11.45,-3.07Q14,-3.07,15.34,-4.41Q16.67,-5.74,16.67,-8.16L16.67,-16.22Q16.67,-18.59,15.34,-19.92Q14,-21.26,11.45,-21.26Q8.89,-21.26,7.56,-19.92Q6.22,-18.59,6.22,-16.22L6.22,-8.16ZM25.18,-22.03Q25.18,-22.76,25.69,-23.24Q26.19,-23.72,26.89,-23.72Q28.02,-23.72,28.81,-22.41Q30.31,-23.34,32.15,-23.91Q33.99,-24.47,35.4,-24.47Q37.89,-24.47,37.89,-22.66Q37.89,-21.8,37.33,-21.25Q36.78,-20.7,36.01,-20.74Q35.66,-20.74,35.35,-20.74Q34.58,-20.77,34.04,-20.72Q33.31,-20.67,32.18,-20.26Q31.04,-19.85,29.92,-19.01Q30.01,-18.07,30.01,-17.72L30.01,-1.48Q30.01,-0.68,29.48,-0.15Q28.96,0.38,28.16,0.38Q27.36,0.38,26.82,-0.15Q26.28,-0.68,26.28,-1.48L26.28,-17.72Q26.28,-19.92,25.51,-21.07Q25.18,-21.56,25.18,-22.03ZM42.27,-32.06Q42.27,-33.02,42.94,-33.69Q43.6,-34.36,44.56,-34.36Q45.53,-34.36,46.19,-33.69Q46.86,-33.02,46.86,-32.06Q46.86,-31.13,46.19,-30.45Q45.53,-29.77,44.56,-29.77Q43.6,-29.77,42.94,-30.45Q42.27,-31.13,42.27,-32.06M42.69,-1.48L42.69,-22.66Q42.69,-23.44,43.24,-23.99Q43.79,-24.54,44.56,-24.54Q45.34,-24.54,45.89,-23.99Q46.44,-23.44,46.44,-22.66L46.44,-1.48Q46.44,-0.68,45.9,-0.15Q45.36,0.38,44.56,0.38Q43.77,0.38,43.23,-0.15Q42.69,-0.68,42.69,-1.48ZM52.93,-22.13Q52.93,-22.85,53.45,-23.33Q53.96,-23.81,54.71,-23.81Q55.81,-23.81,56.73,-22.41Q59.85,-24.59,63.6,-24.59Q67.32,-24.59,69.28,-22.14Q71.24,-19.69,71.24,-15.52L71.24,-1.48Q71.24,-0.7,70.73,-0.19Q70.23,0.33,69.36,0.33Q68.49,0.33,67.99,-0.19Q67.49,-0.7,67.49,-1.48L67.49,-15.52Q67.49,-18.28,66.36,-19.75Q65.24,-21.21,63.08,-21.21Q60.41,-21.21,57.74,-19.2Q57.88,-18.38,57.88,-17.81L57.88,-1.48Q57.88,-0.68,57.4,-0.18Q56.92,0.33,56.03,0.33Q55.14,0.33,54.64,-0.18Q54.15,-0.68,54.15,-1.48L54.15,-17.81Q54.15,-18.75,54.06,-19.37Q53.96,-19.99,53.89,-20.19Q53.82,-20.39,53.59,-20.73Q53.35,-21.07,53.28,-21.16Q53.26,-21.19,53.19,-21.32Q53.12,-21.45,53.07,-21.54Q53.03,-21.63,52.98,-21.8Q52.93,-21.96,52.93,-22.13Z" transform="matrix(3.8,0,0,3.8,302.5,286.6217)" style="-webkit-tap-highlight-color: rgba(0, 0, 0, 0);" stroke-width="1"></path></svg>